<svg xmlns="http://www.w3.org/2000/svg" width="1200" height="320" viewBox="0 0 1200 320" fill="none">
  <defs>
    <linearGradient id="bg" x1="0" y1="0" x2="1200" y2="320" gradientUnits="userSpaceOnUse">
      <stop stop-color="#001529"/>
      <stop offset="0.55" stop-color="#003A66"/>
      <stop offset="1" stop-color="#0A5B96"/>
    </linearGradient>
    <linearGradient id="accent" x1="140" y1="88" x2="490" y2="232" gradientUnits="userSpaceOnUse">
      <stop stop-color="#F39200"/>
      <stop offset="1" stop-color="#FFD36B"/>
    </linearGradient>
  </defs>
  <rect width="1200" height="320" rx="28" fill="url(#bg)"/>
  <rect x="40" y="40" width="1120" height="240" rx="24" fill="white" fill-opacity="0.04" stroke="white" stroke-opacity="0.08"/>
  <circle cx="184" cy="160" r="72" fill="url(#accent)" fill-opacity="0.14"/>
  <circle cx="184" cy="160" r="52" fill="url(#accent)" fill-opacity="0.22"/>
  <path d="M141 171C164 128 188 128 211 171C223 193 235 203 248 203H120C133 203 145 193 157 171H141Z" fill="#F39200" fill-opacity="0.84"/>
  <path d="M132 150C162 98 191 98 221 150" stroke="#FFD36B" stroke-width="10" stroke-linecap="round"/>
  <text x="310" y="128" fill="white" font-family="'Microsoft YaHei','PingFang SC','Segoe UI',sans-serif" font-size="42" font-weight="700">乐源智慧水务管理系统</text>
  <text x="310" y="176" fill="#D9EAF6" font-family="'Microsoft YaHei','PingFang SC','Segoe UI',sans-serif" font-size="22" font-weight="500">生产测试、仓储、历史追溯与包装作业的本地化前端演示项目</text>
  <text x="310" y="220" fill="#F7B554" font-family="'Consolas','SFMono-Regular',monospace" font-size="18">Local-first assets | No blocked runtime CDN</text>
  <path d="M930 92H1068" stroke="white" stroke-opacity="0.22" stroke-width="2"/>
  <path d="M930 124H1120" stroke="white" stroke-opacity="0.12" stroke-width="2"/>
  <path d="M930 156H1090" stroke="white" stroke-opacity="0.22" stroke-width="2"/>
  <path d="M930 188H1138" stroke="white" stroke-opacity="0.12" stroke-width="2"/>
  <path d="M930 220H1040" stroke="white" stroke-opacity="0.22" stroke-width="2"/>
</svg>
